# xmcd
#
# Track frame offsets:
#	150
#	17322
#	30232
#	50025
#	77030
#	92395
#	123582
#	154965
#	173125
#	189342
#	207042
#	216862
#	237365
#	251562
#
# Disc length: 3572 seconds
#
# Revision: 1
# Processed by: cddbd v1.5PL3 Copyright (c) Steve Scherf et al.
# Submitted via: CDex 1.50Beta5
#
DISCID=ac0df20e
DTITLE=大工哲弘 - チバリヨーウチナー
DYEAR=1900
DGENRE=
TTITLE0=沖縄を返せ
TTITLE1=谷茶前
TTITLE2=望郷哀歌
TTITLE3=ひかり
TTITLE4=与那国の猫小
TTITLE5=流れゆく白雲ぬ如く
TTITLE6=気張りヨー
TTITLE7=福々
TTITLE8=張水ぬクイチャー
TTITLE9=西原ぬ子守唄
TTITLE10=安里屋ユンタ
TTITLE11=南国の四季
TTITLE12=つぅんだら
TTITLE13=がんばろう
EXTD=
EXTT0=
EXTT1=
EXTT2=
EXTT3=
EXTT4=
EXTT5=
EXTT6=
EXTT7=
EXTT8=
EXTT9=
EXTT10=
EXTT11=
EXTT12=
EXTT13=
PLAYORDER=
